<svg width="424" height="357" viewBox="0 0 424 357" fill="none" xmlns="http://www.w3.org/2000/svg">
<mask id="mask0_443_12854" style="mask-type:luminance" maskUnits="userSpaceOnUse" x="0" y="0" width="424" height="357">
<rect width="423.108" height="356.648" fill="white"/>
</mask>
<g mask="url(#mask0_443_12854)">
<circle cx="215.94" cy="178.324" r="178.324" fill="#F1F0FF"/>
<rect x="205.561" y="100.581" width="109.347" height="169.327" fill="white"/>
<path d="M183.645 203.931H295.761" stroke="black"/>
<path d="M183.645 215.004H295.761" stroke="black"/>
<path d="M183.645 226.077H295.761" stroke="black"/>
<path d="M183.645 237.15H295.761" stroke="black"/>
<ellipse cx="260.234" cy="149.949" rx="28.606" ry="28.606" fill="#F2F2F2"/>
<rect opacity="0.7" x="295.76" y="160.792" width="45.215" height="41.986" fill="#98B9F2"/>
<path d="M307.499 181.95L313.778 179.49V180.457L308.643 182.396L313.778 184.34V185.307L307.499 182.842V181.95ZM319.337 177.315H320.153L317.65 185.205H316.834L319.337 177.315ZM329.386 182.853L323.107 185.307V184.34L328.237 182.396L323.107 180.457V179.49L329.386 181.95V182.853Z" fill="white"/>
<rect x="16.624" y="17.302" width="244.071" height="160.561" stroke="black"/>
<path d="M16.624 25.8379H260.695" stroke="black"/>
<rect x="34.3867" y="40.1399" width="73.36" height="73.36" stroke="black"/>
<path d="M121.819 46.6001H233.935" stroke="black"/>
<path d="M121.819 57.6731H233.935" stroke="black"/>
<path d="M121.819 68.7461H233.935" stroke="black"/>
<path d="M121.819 79.8191H233.935" stroke="black"/>
<path opacity="0.44" fill-rule="evenodd" clip-rule="evenodd" d="M71.0669 59.5181L51.0889 94.1181H91.0449L71.0669 59.5181Z" fill="#918EF4"/>
<ellipse cx="21.9305" cy="21.6849" rx="2.076" ry="2.076" fill="#AB8DE5"/>
<circle cx="29.0809" cy="21.6849" r="2.076" fill="#73E5E2"/>
<circle cx="36.2323" cy="21.6849" r="2.076" fill="#50B89D"/>
<path fill-rule="evenodd" clip-rule="evenodd" d="M124.125 148.219L131.046 142.106H123.987L124.125 148.219Z" fill="#AB8DE5"/>
<path fill-rule="evenodd" clip-rule="evenodd" d="M117.205 131.032C117.205 127.783 118.354 125.01 120.651 122.713C122.948 120.416 125.721 119.267 128.97 119.267H158.96C162.209 119.267 164.982 120.416 167.279 122.713C169.576 125.01 170.725 127.783 170.725 131.032C170.725 134.281 169.576 137.054 167.279 139.351C164.982 141.648 162.209 142.797 158.96 142.797H128.97C125.721 142.797 122.948 141.648 120.651 139.351C118.354 137.054 117.205 134.281 117.205 131.032Z" fill="#AB8DE5"/>
<circle cx="136.814" cy="131.032" r="2.076" fill="white"/>
<ellipse cx="143.965" cy="131.032" rx="2.076" ry="2.076" fill="white"/>
<ellipse cx="151.116" cy="131.032" rx="2.076" ry="2.076" fill="white"/>
<path fill-rule="evenodd" clip-rule="evenodd" d="M343.282 79.011L336.361 72.8979H343.42L343.282 79.011Z" fill="#98B9F2"/>
<path fill-rule="evenodd" clip-rule="evenodd" d="M350.203 61.8251C350.203 65.0739 349.054 67.8469 346.757 70.1442C344.459 72.4414 341.686 73.5901 338.438 73.5901H308.448C305.199 73.5901 302.426 72.4414 300.129 70.1442C297.831 67.8469 296.683 65.0739 296.683 61.8251C296.683 58.5762 297.831 55.8032 300.129 53.5059C302.426 51.2087 305.199 50.0601 308.448 50.0601L338.438 50.0601C341.686 50.0601 344.459 51.2087 346.757 53.506C349.054 55.8032 350.203 58.5762 350.203 61.8251Z" fill="#98B9F2"/>
<ellipse cx="330.595" cy="61.825" rx="2.076" ry="2.076" fill="white"/>
<ellipse cx="323.442" cy="61.825" rx="2.076" ry="2.076" fill="white"/>
<ellipse cx="316.291" cy="61.825" rx="2.076" ry="2.076" fill="white"/>
<ellipse cx="339.591" cy="19.609" rx="2.076" ry="2.076" fill="#918EF4"/>
<ellipse cx="343.974" cy="28.1441" rx="2.076" ry="2.076" fill="#918EF4"/>
<ellipse cx="296.221" cy="112.347" rx="3.23" ry="3.23" fill="#918EF4"/>
<ellipse cx="315.138" cy="123.42" rx="3.23" ry="3.23" fill="#918EF4"/>
<ellipse cx="24.4683" cy="127.111" rx="3.23" ry="3.23" fill="#F98B67"/>
<path fill-rule="evenodd" clip-rule="evenodd" d="M303.695 274.638V274.177L302.588 272.793L300.027 269.683L297.305 266.389C297.305 266.389 294.684 264.576 294.011 264.262C291.608 263.019 288.956 262.336 286.251 262.262C284.475 262.262 277.835 262.53 277.822 263.646C277.822 265.302 287.122 271.573 293.938 274.618C296.931 274.638 303.695 274.638 303.695 274.638Z" fill="#1F161E"/>
<path fill-rule="evenodd" clip-rule="evenodd" d="M302.288 274.638C292.825 267.357 273.507 227.646 278.462 212.928C289.009 218.303 300.581 236.837 306.039 252.487C306.332 253.506 306.568 254.541 306.745 255.587L308.96 265.737L309.495 274.656L302.288 274.638Z" fill="#6F9CEB"/>
<path fill-rule="evenodd" clip-rule="evenodd" d="M308.748 274.638C305.555 272.045 304.536 264.368 304.508 261.503C304.457 256.156 305.278 252.215 309.851 246.333C314.424 240.451 313.205 230.692 319.277 224.108C325.349 217.524 329.372 215.688 336.577 215.688C343.782 215.688 346.077 227.37 346.035 230.309C345.952 242.166 338.482 243.846 333.924 249.502C330.616 253.608 330.358 256.967 329.356 258.887C323.986 269.231 319.621 273.121 316.391 274.639" fill="#918EF4"/>
<path d="M310.51 273.779C310.602 253.557 331.91 223.179 336.467 218.63" stroke="white" stroke-width="0.4" stroke-linecap="round" stroke-linejoin="round"/>
<path d="M311.658 264.589C309.3 262.019 307.158 254.734 307.478 252.842" stroke="white" stroke-width="0.4" stroke-linecap="round" stroke-linejoin="round"/>
<path d="M305.62 272.893C302.279 266.973 286.43 238.109 280.521 216.849" stroke="white" stroke-width="0.4" stroke-linecap="round" stroke-linejoin="round"/>
<path fill-rule="evenodd" clip-rule="evenodd" d="M316.411 274.637H326.34L318.04 305.55H295.829L287.658 274.637H316.411" fill="#B37361"/>
<path d="M281.069 264.27C285.909 264.602 291.999 264.824 296.295 267.753" stroke="white" stroke-width="0.4" stroke-linecap="round" stroke-linejoin="round"/>
<path fill-rule="evenodd" clip-rule="evenodd" d="M357.791 148.104C356.624 153.673 348.144 222.751 350.916 239.25C353.688 255.749 398.9 290.32 400.879 290.925C403.186 289.232 406.579 283.681 406.579 283.681C406.579 283.681 373.429 245.253 372.797 243.712C372.165 242.171 380.059 153.18 380.059 153.18L357.791 148.104Z" fill="#7472C1"/>
<path fill-rule="evenodd" clip-rule="evenodd" d="M411.779 160.676L377.954 298.634H366.563L378.107 154.715L411.779 160.676Z" fill="#AB8DE5"/>
<path fill-rule="evenodd" clip-rule="evenodd" d="M387.758 81.688C392.427 81.688 416.784 82.477 421.185 91.049C425.586 99.621 421.439 139.249 418.703 140.781C417.227 141.607 416.825 140.804 416.396 142.481C415.967 144.158 411.782 160.673 411.782 160.673C409.124 160.747 370.382 154.91 357.8 148.087C357.874 146.187 358.483 141.259 358.483 140.88C356.813 141.563 354.792 141.706 354.238 140.88C349.329 133.447 356.646 94.696 361.897 86.898C364.128 83.557 380.258 81.711 387.758 81.688Z" fill="#6F9CEB"/>
<path fill-rule="evenodd" clip-rule="evenodd" d="M403.793 141.852C404.937 141.852 414.788 148.773 413.943 152.173C414.635 149.442 416.813 141.003 416.813 141.003C415.877 141.183 404.633 141.866 403.793 141.852Z" fill="#1F161E"/>
<path fill-rule="evenodd" clip-rule="evenodd" d="M393.785 86.21C393.785 87.71 381.923 87.71 381.923 86.21V70.984H393.785V86.21Z" fill="#F8CDBA"/>
<path fill-rule="evenodd" clip-rule="evenodd" d="M386.979 74.587C387.902 74.587 393.784 77.187 393.784 78.638V70.984C392.318 70.984 386.979 74.587 386.979 74.587Z" fill="#1F161E"/>
<circle cx="385.355" cy="64.16" r="11.539" fill="#F8CDBA"/>
<path fill-rule="evenodd" clip-rule="evenodd" d="M381.453 47.292C375.529 47.292 371.838 51.011 371.838 55.777C371.838 59.74 372.798 61.983 373.928 62.55C374.643 58.702 376.198 56.921 377.485 56.155C378.485 56.921 380.198 58.776 382.485 59.348C384.772 59.92 390.73 59.809 395.542 63.307C397.115 61.877 398.684 60.017 398.684 57.826C398.684 55.635 397.715 52.885 392.017 51.297C388.254 50.249 387.728 47.292 381.453 47.292Z" fill="#1F161E"/>
<ellipse cx="374.574" cy="66.536" rx="2.021" ry="1.052" fill="#FA9E9F"/>
<ellipse cx="387.285" cy="66.536" rx="2.021" ry="1.052" fill="#FA9E9F"/>
<path d="M379.511 64.354C379.133 64.894 377.204 67.159 379.239 68.073" stroke="#1F161E" stroke-linecap="round"/>
<path d="M383.312 70.716C384.147 70.5105 384.875 69.9982 385.351 69.281" stroke="#1F161E" stroke-linecap="round"/>
<circle cx="396.022" cy="65.489" r="2.667" fill="#F8CDBA"/>
<path d="M404.059 104.393C403.851 106.94 403.039 119.526 403.344 121.183C399.473 122.53 364.03 139.338 357.898 141.183" stroke="#1F161E" stroke-linecap="round"/>
<path d="M362.896 100.42C362.079 103.271 359.33 116.213 361.263 122.22" stroke="#1F161E" stroke-linecap="round"/>
<path d="M371.944 135.296C373.79 136.596 391.479 144.422 415.937 141.469" stroke="#1F161E" stroke-linecap="round"/>
<path fill-rule="evenodd" clip-rule="evenodd" d="M370.252 122.225C371.438 122.414 367.571 119.325 365.38 120.476C363.189 121.627 360.236 126.825 360.84 128.029C361.004 128.472 361.361 128.816 361.809 128.965C362.258 129.114 362.75 129.051 363.147 128.795C363.741 128.412 368.184 121.892 370.252 122.225Z" fill="#F8CDBA"/>
<path fill-rule="evenodd" clip-rule="evenodd" d="M406.201 284.248C406.833 284.709 412.439 288.502 412.485 290.892C412.531 293.282 407.262 301.204 406.201 301.43C405.14 301.656 404.383 300.761 404.383 299.16C404.383 297.559 406.383 294.754 406.118 293.508C405.853 292.262 403.262 289.983 401.933 289.942" fill="#EBEBEB" fill-opacity="0.25098"/>
<path fill-rule="evenodd" clip-rule="evenodd" d="M376.871 298.634C376.871 299.734 377.508 306.625 376.234 307.266C374.96 307.907 360.907 308.286 360.27 307.649C359.633 307.012 359.246 305.67 359.809 305.287C360.372 304.904 365.809 303.815 366.545 303.308C367.631 302.007 368.131 300.316 367.929 298.634" fill="#EBEBEB" fill-opacity="0.25098"/>
<rect x="12.001" y="247.457" width="89.222" height="45.257" fill="#B37361"/>
<path fill-rule="evenodd" clip-rule="evenodd" d="M145.179 226.247C145.567 228.554 152.146 281.294 153.212 282.166C154.278 283.038 165.595 284.971 166.564 283.522C166.758 281.215 167.025 244.434 167.625 241.144" fill="#1F161E"/>
<path fill-rule="evenodd" clip-rule="evenodd" d="M17.8835 215.243C13.3205 212.996 22.8345 257.538 47.8735 257.538C72.9125 257.538 115.059 219.396 121.883 219.396C136.948 219.396 172.607 248.971 175.404 248.971C177.545 246.83 181.826 243.084 181.826 241.589C181.826 240.094 147.684 183.916 122.136 183.916C112.232 183.929 28.1865 220.332 17.8835 215.243Z" fill="#7472C1"/>
<path fill-rule="evenodd" clip-rule="evenodd" d="M31.9747 216.002C36.9807 214.867 43.2097 211.928 48.7227 208.924C33.7227 213.824 21.4317 216.998 17.8837 215.245C15.4657 214.055 16.9977 225.977 22.6837 237.461C21.6527 235.239 20.1857 218.694 31.9747 216.002Z" fill="#1F161E"/>
<path fill-rule="evenodd" clip-rule="evenodd" d="M43.0096 137.86C46.9546 137.966 67.4906 137.36 73.1196 142.723C77.2946 146.7 90.2786 180.902 92.2806 192.912C83.5606 197.346 20.6606 227.46 1.19961 214.219C0.770608 203.93 2.76861 163.029 15.4996 141.579C20.1536 138.478 39.2176 137.763 43.0096 137.86Z" fill="white"/>
<path fill-rule="evenodd" clip-rule="evenodd" d="M51.0107 128.074H39.0107V140.965C39.0107 144.195 51.0107 144.165 51.0107 140.965V128.074Z" fill="#F8CDBA"/>
<path fill-rule="evenodd" clip-rule="evenodd" d="M39.0147 135.857C39.0147 134.427 42.9777 130.833 45.4277 130.957C45.4877 129.365 39.8277 127.077 39.8277 127.077L39.0107 129.277L39.0147 135.857Z" fill="#1F161E"/>
<path fill-rule="evenodd" clip-rule="evenodd" d="M63.5738 128.074C63.8433 126.825 63.9794 125.551 63.9798 124.274C63.9798 114.76 56.5468 107.046 47.3698 107.046C38.1928 107.046 30.7598 114.76 30.7598 124.274C30.7598 125.547 30.8955 126.821 31.1648 128.069L63.5738 128.074Z" fill="#1F161E"/>
<path fill-rule="evenodd" clip-rule="evenodd" d="M59.1955 116.461C57.1605 116.152 55.1305 114.551 53.7145 113.504C45.6405 119.419 40.4685 119.494 39.9095 119.494C39.3505 119.494 37.0765 122.761 36.0295 123.13L35.9375 123.075C36.7719 127.777 40.1931 131.604 44.7731 132.957C49.3531 134.311 54.3047 132.958 57.5609 129.465C60.8171 125.971 61.8183 120.937 60.1465 116.463C59.8311 116.502 59.512 116.502 59.1965 116.463L59.1955 116.461Z" fill="#F8CDBA"/>
<circle cx="38.3736" cy="104.295" r="4.9" fill="#1F161E"/>
<path d="M40.5551 119.234C39.4527 119.283 38.584 120.191 38.584 121.294C38.584 122.397 39.4527 123.305 40.5551 123.354" stroke="#1F161E" stroke-linecap="round"/>
<path d="M56.2617 119.497C56.8617 120.304 58.4207 121.721 56.2617 123.22" stroke="#1F161E" stroke-linecap="round"/>
<path d="M49.7143 124.3C49.6592 125.357 50.2849 126.332 51.2693 126.722" stroke="#1F161E" stroke-linecap="round"/>
<ellipse cx="45.6959" cy="123.456" rx="1.901" ry="0.987" fill="#FA9E9F"/>
<ellipse cx="59.8278" cy="123.456" rx="1.901" ry="0.987" fill="#FA9E9F"/>
<path fill-rule="evenodd" clip-rule="evenodd" d="M72.6865 173.511L85.5085 170.211C86.7405 172.306 92.7385 192.888 92.7385 192.888L72.9465 201.231C73.2035 197.332 73.9825 179.477 72.6865 173.511Z" fill="#F8CDBA"/>
<path d="M27.7293 170.286C27.2912 173.739 26.5973 177.155 25.6533 180.506" stroke="#1F161E" stroke-linecap="round"/>
<path d="M72.6863 173.512C72.3773 171.071 70.5683 157.318 67.4863 150.078" stroke="#1F161E" stroke-linecap="round"/>
<path fill-rule="evenodd" clip-rule="evenodd" d="M72.6865 173.511L85.5085 170.211C86.7405 172.306 92.7385 192.888 92.7385 192.888L72.9465 201.231C73.2035 197.332 73.9825 179.477 72.6865 173.511Z" fill="#F8CDBA"/>
<path fill-rule="evenodd" clip-rule="evenodd" d="M175.786 247.881C176.072 248.342 179.892 253.03 181.244 253.081C182.596 253.132 190.804 247.572 190.444 246.381C190.084 245.19 184.935 245.966 184.049 245.546C182.743 244.723 181.65 243.602 180.861 242.275" fill="#1F161E"/>
<path fill-rule="evenodd" clip-rule="evenodd" d="M155.6 282.656C155.5 283.168 154.982 289.208 155.918 290.186C156.854 291.164 166.618 292.862 167.19 291.75C167.762 290.638 163.499 287.625 163.171 286.712C162.809 285.214 162.809 283.652 163.171 282.154" fill="#1F161E"/>
<path fill-rule="evenodd" clip-rule="evenodd" d="M140.288 194.181H96.8398L107.184 166.77H150.632L140.288 194.181Z" fill="#969696"/>
<rect x="60.6357" y="193.148" width="43.448" height="1.033" fill="#969696"/>
<path fill-rule="evenodd" clip-rule="evenodd" d="M25.6536 180.51C24.8186 183.629 20.7626 197.01 22.4146 199.316C24.0666 201.622 65.4336 196.395 76.5026 192.949C79.3216 192.026 81.4116 189.609 82.6616 189.295C85.9866 188.731 89.2019 190.764 90.1176 194.01C85.7016 196.151 21.8796 228.734 1.20161 214.233C-2.70639 211.433 4.14961 177.29 4.46361 175.569C7.95461 175.989 25.6536 180.51 25.6536 180.51Z" fill="#F8CDBA"/>
<path d="M73.2773 193.78C74.5233 193.48 75.6124 193.194 76.5073 192.917C79.3263 191.994 81.4163 189.577 82.6663 189.263C85.9913 188.699 89.2066 190.732 90.1223 193.978" stroke="#1F161E" stroke-linecap="round"/>
</g>
</svg>
